<mxfile host="app.diagrams.net" modified="2022-03-14T03:36:06.118Z" agent="5.0 (Windows NT 10.0; Win64; x64) AppleWebKit/537.36 (KHTML, like Gecko) Chrome/99.0.4844.51 Safari/537.36" etag="9Boq-VEpPQWo77AOPSWY" version="17.1.1" type="github">
  <diagram id="rWNuK7VLrS59_Mwxvj3H" name="Page-1">
    <mxGraphModel dx="1038" dy="547" grid="1" gridSize="10" guides="1" tooltips="1" connect="1" arrows="1" fold="1" page="1" pageScale="1" pageWidth="850" pageHeight="1100" math="0" shadow="0">
      <root>
        <mxCell id="0" />
        <mxCell id="1" parent="0" />
        <mxCell id="AiHMYNGSGhyVfVRw-1XM-4" value="" style="rounded=1;whiteSpace=wrap;html=1;absoluteArcSize=1;arcSize=14;strokeWidth=1;fontFamily=Helvetica;fontSize=12;fontColor=default;fillColor=default;" vertex="1" parent="1">
          <mxGeometry x="260" y="80" width="400" height="480" as="geometry" />
        </mxCell>
        <mxCell id="AiHMYNGSGhyVfVRw-1XM-30" style="rounded=0;orthogonalLoop=1;jettySize=auto;html=1;exitX=1;exitY=0.3333333333333333;exitDx=0;exitDy=0;exitPerimeter=0;entryX=0;entryY=0.5;entryDx=0;entryDy=0;fontFamily=Helvetica;fontSize=12;fontColor=default;endArrow=none;endFill=0;" edge="1" parent="1" source="AiHMYNGSGhyVfVRw-1XM-5" target="AiHMYNGSGhyVfVRw-1XM-26">
          <mxGeometry relative="1" as="geometry" />
        </mxCell>
        <mxCell id="AiHMYNGSGhyVfVRw-1XM-32" style="edgeStyle=none;rounded=0;orthogonalLoop=1;jettySize=auto;html=1;exitX=1;exitY=0.3333333333333333;exitDx=0;exitDy=0;exitPerimeter=0;entryX=0;entryY=0.5;entryDx=0;entryDy=0;fontFamily=Helvetica;fontSize=12;fontColor=default;endArrow=none;endFill=0;" edge="1" parent="1" source="AiHMYNGSGhyVfVRw-1XM-5" target="AiHMYNGSGhyVfVRw-1XM-28">
          <mxGeometry relative="1" as="geometry" />
        </mxCell>
        <mxCell id="AiHMYNGSGhyVfVRw-1XM-33" style="edgeStyle=none;rounded=0;orthogonalLoop=1;jettySize=auto;html=1;exitX=1;exitY=0.3333333333333333;exitDx=0;exitDy=0;exitPerimeter=0;entryX=0;entryY=0.5;entryDx=0;entryDy=0;fontFamily=Helvetica;fontSize=12;fontColor=default;endArrow=none;endFill=0;" edge="1" parent="1" source="AiHMYNGSGhyVfVRw-1XM-5" target="AiHMYNGSGhyVfVRw-1XM-29">
          <mxGeometry relative="1" as="geometry" />
        </mxCell>
        <mxCell id="AiHMYNGSGhyVfVRw-1XM-5" value="普通用户" style="shape=umlActor;verticalLabelPosition=bottom;verticalAlign=top;html=1;outlineConnect=0;rounded=1;fontFamily=Helvetica;fontSize=12;fontColor=default;strokeColor=default;strokeWidth=1;fillColor=default;" vertex="1" parent="1">
          <mxGeometry x="140" y="160" width="30" height="60" as="geometry" />
        </mxCell>
        <mxCell id="AiHMYNGSGhyVfVRw-1XM-40" style="edgeStyle=none;shape=connector;rounded=0;orthogonalLoop=1;jettySize=auto;html=1;exitX=1;exitY=0.3333333333333333;exitDx=0;exitDy=0;exitPerimeter=0;entryX=0;entryY=0.5;entryDx=0;entryDy=0;labelBackgroundColor=default;fontFamily=Helvetica;fontSize=12;fontColor=default;endArrow=none;endFill=0;strokeColor=default;" edge="1" parent="1" source="AiHMYNGSGhyVfVRw-1XM-6" target="AiHMYNGSGhyVfVRw-1XM-21">
          <mxGeometry relative="1" as="geometry" />
        </mxCell>
        <mxCell id="AiHMYNGSGhyVfVRw-1XM-41" style="edgeStyle=none;shape=connector;rounded=0;orthogonalLoop=1;jettySize=auto;html=1;exitX=1;exitY=0.3333333333333333;exitDx=0;exitDy=0;exitPerimeter=0;entryX=0;entryY=0.5;entryDx=0;entryDy=0;labelBackgroundColor=default;fontFamily=Helvetica;fontSize=12;fontColor=default;endArrow=none;endFill=0;strokeColor=default;" edge="1" parent="1" source="AiHMYNGSGhyVfVRw-1XM-6" target="AiHMYNGSGhyVfVRw-1XM-20">
          <mxGeometry relative="1" as="geometry" />
        </mxCell>
        <mxCell id="AiHMYNGSGhyVfVRw-1XM-42" style="edgeStyle=none;shape=connector;rounded=0;orthogonalLoop=1;jettySize=auto;html=1;exitX=1;exitY=0.3333333333333333;exitDx=0;exitDy=0;exitPerimeter=0;entryX=0;entryY=0.5;entryDx=0;entryDy=0;labelBackgroundColor=default;fontFamily=Helvetica;fontSize=12;fontColor=default;endArrow=none;endFill=0;strokeColor=default;" edge="1" parent="1" source="AiHMYNGSGhyVfVRw-1XM-6" target="AiHMYNGSGhyVfVRw-1XM-19">
          <mxGeometry relative="1" as="geometry" />
        </mxCell>
        <mxCell id="AiHMYNGSGhyVfVRw-1XM-43" style="edgeStyle=none;shape=connector;rounded=0;orthogonalLoop=1;jettySize=auto;html=1;exitX=1;exitY=0.3333333333333333;exitDx=0;exitDy=0;exitPerimeter=0;entryX=0;entryY=0.5;entryDx=0;entryDy=0;labelBackgroundColor=default;fontFamily=Helvetica;fontSize=12;fontColor=default;endArrow=none;endFill=0;strokeColor=default;" edge="1" parent="1" source="AiHMYNGSGhyVfVRw-1XM-6" target="AiHMYNGSGhyVfVRw-1XM-22">
          <mxGeometry relative="1" as="geometry" />
        </mxCell>
        <mxCell id="AiHMYNGSGhyVfVRw-1XM-44" style="edgeStyle=none;shape=connector;rounded=0;orthogonalLoop=1;jettySize=auto;html=1;exitX=1;exitY=0.3333333333333333;exitDx=0;exitDy=0;exitPerimeter=0;entryX=0;entryY=0.5;entryDx=0;entryDy=0;labelBackgroundColor=default;fontFamily=Helvetica;fontSize=12;fontColor=default;endArrow=none;endFill=0;strokeColor=default;" edge="1" parent="1" source="AiHMYNGSGhyVfVRw-1XM-6" target="AiHMYNGSGhyVfVRw-1XM-25">
          <mxGeometry relative="1" as="geometry" />
        </mxCell>
        <mxCell id="AiHMYNGSGhyVfVRw-1XM-6" value="管理员" style="shape=umlActor;verticalLabelPosition=bottom;verticalAlign=top;html=1;outlineConnect=0;rounded=1;fontFamily=Helvetica;fontSize=12;fontColor=default;strokeColor=default;strokeWidth=1;fillColor=default;" vertex="1" parent="1">
          <mxGeometry x="150" y="380" width="30" height="60" as="geometry" />
        </mxCell>
        <mxCell id="AiHMYNGSGhyVfVRw-1XM-34" style="edgeStyle=none;rounded=0;orthogonalLoop=1;jettySize=auto;html=1;exitX=0;exitY=0.3333333333333333;exitDx=0;exitDy=0;exitPerimeter=0;entryX=1;entryY=0.5;entryDx=0;entryDy=0;fontFamily=Helvetica;fontSize=12;fontColor=default;endArrow=none;endFill=0;" edge="1" parent="1" source="AiHMYNGSGhyVfVRw-1XM-7" target="AiHMYNGSGhyVfVRw-1XM-26">
          <mxGeometry relative="1" as="geometry" />
        </mxCell>
        <mxCell id="AiHMYNGSGhyVfVRw-1XM-35" style="edgeStyle=none;rounded=0;orthogonalLoop=1;jettySize=auto;html=1;exitX=0;exitY=0.3333333333333333;exitDx=0;exitDy=0;exitPerimeter=0;entryX=1;entryY=0.5;entryDx=0;entryDy=0;fontFamily=Helvetica;fontSize=12;fontColor=default;endArrow=none;endFill=0;" edge="1" parent="1" source="AiHMYNGSGhyVfVRw-1XM-7" target="AiHMYNGSGhyVfVRw-1XM-27">
          <mxGeometry relative="1" as="geometry" />
        </mxCell>
        <mxCell id="AiHMYNGSGhyVfVRw-1XM-36" style="edgeStyle=none;rounded=0;orthogonalLoop=1;jettySize=auto;html=1;exitX=0;exitY=0.3333333333333333;exitDx=0;exitDy=0;exitPerimeter=0;entryX=1;entryY=0.5;entryDx=0;entryDy=0;fontFamily=Helvetica;fontSize=12;fontColor=default;endArrow=none;endFill=0;" edge="1" parent="1" source="AiHMYNGSGhyVfVRw-1XM-7" target="AiHMYNGSGhyVfVRw-1XM-29">
          <mxGeometry relative="1" as="geometry" />
        </mxCell>
        <mxCell id="AiHMYNGSGhyVfVRw-1XM-37" style="edgeStyle=none;rounded=0;orthogonalLoop=1;jettySize=auto;html=1;exitX=0;exitY=0.3333333333333333;exitDx=0;exitDy=0;exitPerimeter=0;entryX=1;entryY=0.5;entryDx=0;entryDy=0;fontFamily=Helvetica;fontSize=12;fontColor=default;endArrow=none;endFill=0;" edge="1" parent="1" source="AiHMYNGSGhyVfVRw-1XM-7" target="AiHMYNGSGhyVfVRw-1XM-16">
          <mxGeometry relative="1" as="geometry" />
        </mxCell>
        <mxCell id="AiHMYNGSGhyVfVRw-1XM-38" style="edgeStyle=none;rounded=0;orthogonalLoop=1;jettySize=auto;html=1;exitX=0;exitY=0.3333333333333333;exitDx=0;exitDy=0;exitPerimeter=0;entryX=1;entryY=0.5;entryDx=0;entryDy=0;fontFamily=Helvetica;fontSize=12;fontColor=default;endArrow=none;endFill=0;" edge="1" parent="1" source="AiHMYNGSGhyVfVRw-1XM-7" target="AiHMYNGSGhyVfVRw-1XM-28">
          <mxGeometry relative="1" as="geometry" />
        </mxCell>
        <mxCell id="AiHMYNGSGhyVfVRw-1XM-7" value="注册用户" style="shape=umlActor;verticalLabelPosition=bottom;verticalAlign=top;html=1;outlineConnect=0;rounded=1;fontFamily=Helvetica;fontSize=12;fontColor=default;strokeColor=default;strokeWidth=1;fillColor=default;" vertex="1" parent="1">
          <mxGeometry x="730" y="165" width="30" height="60" as="geometry" />
        </mxCell>
        <mxCell id="AiHMYNGSGhyVfVRw-1XM-8" value="查看动漫信息" style="ellipse;whiteSpace=wrap;html=1;rounded=1;fontFamily=Helvetica;fontSize=12;fontColor=default;strokeColor=default;strokeWidth=1;fillColor=default;" vertex="1" parent="1">
          <mxGeometry x="400" y="100" width="120" height="30" as="geometry" />
        </mxCell>
        <mxCell id="AiHMYNGSGhyVfVRw-1XM-9" value="查看海报信息" style="ellipse;whiteSpace=wrap;html=1;rounded=1;fontFamily=Helvetica;fontSize=12;fontColor=default;strokeColor=default;strokeWidth=1;fillColor=default;" vertex="1" parent="1">
          <mxGeometry x="400" y="220" width="120" height="30" as="geometry" />
        </mxCell>
        <mxCell id="AiHMYNGSGhyVfVRw-1XM-11" value="查看公告信息" style="ellipse;whiteSpace=wrap;html=1;rounded=1;fontFamily=Helvetica;fontSize=12;fontColor=default;strokeColor=default;strokeWidth=1;fillColor=default;" vertex="1" parent="1">
          <mxGeometry x="400" y="140" width="120" height="30" as="geometry" />
        </mxCell>
        <mxCell id="AiHMYNGSGhyVfVRw-1XM-12" value="查看评论信息" style="ellipse;whiteSpace=wrap;html=1;rounded=1;fontFamily=Helvetica;fontSize=12;fontColor=default;strokeColor=default;strokeWidth=1;fillColor=default;" vertex="1" parent="1">
          <mxGeometry x="400" y="180" width="120" height="30" as="geometry" />
        </mxCell>
        <mxCell id="AiHMYNGSGhyVfVRw-1XM-16" value="发表评论回复" style="ellipse;whiteSpace=wrap;html=1;rounded=1;fontFamily=Helvetica;fontSize=12;fontColor=default;strokeColor=default;strokeWidth=1;fillColor=default;" vertex="1" parent="1">
          <mxGeometry x="400" y="260" width="120" height="30" as="geometry" />
        </mxCell>
        <mxCell id="AiHMYNGSGhyVfVRw-1XM-19" value="管理评论信息" style="ellipse;whiteSpace=wrap;html=1;rounded=1;fontFamily=Helvetica;fontSize=12;fontColor=default;strokeColor=default;strokeWidth=1;fillColor=default;" vertex="1" parent="1">
          <mxGeometry x="400" y="400" width="120" height="30" as="geometry" />
        </mxCell>
        <mxCell id="AiHMYNGSGhyVfVRw-1XM-20" value="管理公告信息" style="ellipse;whiteSpace=wrap;html=1;rounded=1;fontFamily=Helvetica;fontSize=12;fontColor=default;strokeColor=default;strokeWidth=1;fillColor=default;" vertex="1" parent="1">
          <mxGeometry x="400" y="360" width="120" height="30" as="geometry" />
        </mxCell>
        <mxCell id="AiHMYNGSGhyVfVRw-1XM-21" value="管理动漫信息" style="ellipse;whiteSpace=wrap;html=1;rounded=1;fontFamily=Helvetica;fontSize=12;fontColor=default;strokeColor=default;strokeWidth=1;fillColor=default;" vertex="1" parent="1">
          <mxGeometry x="400" y="320" width="120" height="30" as="geometry" />
        </mxCell>
        <mxCell id="AiHMYNGSGhyVfVRw-1XM-22" value="管理海报信息" style="ellipse;whiteSpace=wrap;html=1;rounded=1;fontFamily=Helvetica;fontSize=12;fontColor=default;strokeColor=default;strokeWidth=1;fillColor=default;" vertex="1" parent="1">
          <mxGeometry x="400" y="440" width="120" height="30" as="geometry" />
        </mxCell>
        <mxCell id="AiHMYNGSGhyVfVRw-1XM-25" value="管理用户信息" style="ellipse;whiteSpace=wrap;html=1;rounded=1;fontFamily=Helvetica;fontSize=12;fontColor=default;strokeColor=default;strokeWidth=1;fillColor=default;" vertex="1" parent="1">
          <mxGeometry x="400" y="480" width="120" height="30" as="geometry" />
        </mxCell>
        <mxCell id="AiHMYNGSGhyVfVRw-1XM-26" value="查看动漫信息" style="ellipse;whiteSpace=wrap;html=1;rounded=1;fontFamily=Helvetica;fontSize=12;fontColor=default;strokeColor=default;strokeWidth=1;fillColor=default;" vertex="1" parent="1">
          <mxGeometry x="400" y="100" width="120" height="30" as="geometry" />
        </mxCell>
        <mxCell id="AiHMYNGSGhyVfVRw-1XM-27" value="查看公告信息" style="ellipse;whiteSpace=wrap;html=1;rounded=1;fontFamily=Helvetica;fontSize=12;fontColor=default;strokeColor=default;strokeWidth=1;fillColor=default;" vertex="1" parent="1">
          <mxGeometry x="400" y="140" width="120" height="30" as="geometry" />
        </mxCell>
        <mxCell id="AiHMYNGSGhyVfVRw-1XM-28" value="查看评论信息" style="ellipse;whiteSpace=wrap;html=1;rounded=1;fontFamily=Helvetica;fontSize=12;fontColor=default;strokeColor=default;strokeWidth=1;fillColor=default;" vertex="1" parent="1">
          <mxGeometry x="400" y="180" width="120" height="30" as="geometry" />
        </mxCell>
        <mxCell id="AiHMYNGSGhyVfVRw-1XM-29" value="查看海报信息" style="ellipse;whiteSpace=wrap;html=1;rounded=1;fontFamily=Helvetica;fontSize=12;fontColor=default;strokeColor=default;strokeWidth=1;fillColor=default;" vertex="1" parent="1">
          <mxGeometry x="400" y="220" width="120" height="30" as="geometry" />
        </mxCell>
        <mxCell id="AiHMYNGSGhyVfVRw-1XM-31" style="rounded=0;orthogonalLoop=1;jettySize=auto;html=1;exitX=1;exitY=0.3333333333333333;exitDx=0;exitDy=0;exitPerimeter=0;entryX=0;entryY=0.5;entryDx=0;entryDy=0;fontFamily=Helvetica;fontSize=12;fontColor=default;endArrow=none;endFill=0;" edge="1" parent="1" source="AiHMYNGSGhyVfVRw-1XM-5" target="AiHMYNGSGhyVfVRw-1XM-27">
          <mxGeometry relative="1" as="geometry">
            <mxPoint x="180" y="190" as="sourcePoint" />
            <mxPoint x="410" y="125" as="targetPoint" />
          </mxGeometry>
        </mxCell>
      </root>
    </mxGraphModel>
  </diagram>
</mxfile>
